<?xml version="1.0" encoding="utf-8"?>
<!-- Generator: Adobe Illustrator 22.1.0, SVG Export Plug-In . SVG Version: 6.00 Build 0)  -->
<svg version="1.1" id="Layer_1" xmlns="http://www.w3.org/2000/svg" xmlns:xlink="http://www.w3.org/1999/xlink" x="0px" y="0px"
	 viewBox="0 0 38.4 38.4" style="enable-background:new 0 0 38.4 38.4;" xml:space="preserve">
<style type="text/css">
	.st0{opacity:0.19;enable-background:new    ;}
	.st1{fill:#E8748A;}
	.st2{fill:#AF5151;}
	.st3{fill:#913D3D;}
	.st4{fill:#FFFFFF;}
	.st5{fill:#0098D0;}
</style>
<ellipse class="st0" cx="18.7" cy="35.6" rx="8.2" ry="2.6"/>
<path class="st1" d="M18.7,0.2c-7.4,0-13.5,5.9-13.5,13.3s13.5,22.2,13.5,22.2s13.5-14.8,13.5-22.2S26.2,0.2,18.7,0.2z"/>
<circle class="st2" cx="18.7" cy="12.5" r="3.3"/>
<path class="st3" d="M18.7,9.9c1.7,0,3.1,1.3,3.3,3c0-0.2,0.1-0.2,0.1-0.4c0-1.8-1.5-3.3-3.3-3.3c-1.8,0-3.3,1.5-3.3,3.3
	c0,0.2,0,0.2,0.1,0.4C15.6,11.2,17,9.9,18.7,9.9z"/>
<g>
	<circle class="st1" cx="18.7" cy="13.3" r="13.1"/>
	<g>
		<path class="st4" d="M24.9,11.1C26,8.8,22.5,7.3,21.3,8c-3-3.4-7.2-0.9-7,1.6c-3.6-2.4-7.7,3.7-4.5,6.2c-1.8,1.6,0.8,4.5,3.1,3.1
			c1,2,3.2,1.3,4.7,0.5c1.4,1.2,3.1,0.8,4.2-0.6c1,1.3,4.3,1.2,4.7-1.8C30.7,15.2,28.4,10.1,24.9,11.1z"/>
		<g>
			<path class="st5" d="M25.2,11.3c0.5-1.2,0.1-2.3-0.9-3.1c-0.8-0.6-2.2-1-3.1-0.5c0.2,0,0.3,0,0.5,0.1c-1.3-1.4-3.2-2.1-5.1-1.5
				c-1.4,0.5-2.6,1.8-2.6,3.4c0.2-0.1,0.4-0.2,0.6-0.3c-3.9-2.5-8.5,3.9-4.9,6.8c0-0.2,0-0.4,0-0.5c-1,0.9-0.9,2.2,0,3.2
				c0.9,1.1,2.5,1.2,3.7,0.5c-0.2,0-0.4-0.1-0.5-0.1c1.1,2.1,3.4,1.6,5.2,0.6c-0.1,0-0.3,0-0.4,0c1.5,1.2,3.4,0.8,4.6-0.6
				c-0.2,0-0.4,0-0.5,0c0.9,1,2.4,1,3.6,0.6c0.7-0.3,1.2-0.9,1.5-1.6c0.2-0.5,0.2-0.7,0.7-1c0.4-0.2,0.8-0.6,1.1-0.9
				c0.9-1.1,1-2.7,0.2-3.9c-0.8-1.3-2.4-1.8-3.8-1.4c-0.5,0.1-0.3,0.9,0.2,0.7c2.6-0.6,4.5,2.3,2.6,4.3c-0.3,0.3-0.6,0.5-0.9,0.7
				c-0.2,0.1-0.5,0.2-0.6,0.4c-0.1,0.7-0.4,1.4-1,1.8c-0.9,0.6-2.3,0.6-3-0.2c-0.1-0.1-0.4-0.2-0.5,0c-1,1.2-2.4,1.5-3.7,0.5
				c-0.1-0.1-0.3-0.1-0.4,0c-1.4,0.7-3.2,1.3-4.1-0.3c-0.1-0.2-0.3-0.2-0.5-0.1c-0.9,0.5-1.8,0.4-2.6-0.3c-0.7-0.6-0.7-1.6-0.1-2.2
				c0.1-0.1,0.2-0.4,0-0.5C7.3,13.2,11,8,14.1,10c0.2,0.2,0.6,0,0.6-0.3c-0.1-1.2,0.9-2.2,2-2.7c1.6-0.6,3.2,0.1,4.3,1.3
				c0.1,0.1,0.3,0.1,0.5,0.1c0.6-0.4,1.5,0,2.1,0.3c0.8,0.5,1.3,1.3,0.9,2.3C24.4,11.4,25,11.8,25.2,11.3z"/>
		</g>
	</g>
	<g>
		<path class="st5" d="M20.2,10.6c0.5-0.4,0.5-1,0.1-1.5c-0.5-0.6-1.5-0.5-2-0.1c-1.2,0.8-0.3,2.5,0.7,3c1.3,0.6,2.7-0.1,3.2-1.4
			c0.6-1.6-0.6-3.2-1.9-3.9c-0.4-0.3-0.8,0.4-0.4,0.7C21.1,8,22.3,9.8,21,11c-0.6,0.6-1.7,0.4-2.2-0.2c-0.2-0.3-0.4-0.7-0.3-1
			c0.2-0.7,1.7-0.3,1.1,0.2C19.3,10.4,19.8,10.9,20.2,10.6L20.2,10.6z"/>
	</g>
	<g>
		<g>
			<path class="st5" d="M16,13.4c-0.8-0.6-2.5-0.5-3.1,0.4c-0.3,0.4,0.3,0.9,0.6,0.5c0.4-0.6,1.6-0.5,2.1-0.2
				C15.9,14.3,16.4,13.6,16,13.4L16,13.4z"/>
		</g>
	</g>
	<g>
		<g>
			<path class="st5" d="M23.7,13.5c-0.9-0.7-2.1-0.7-3.2-0.4c-0.5,0.1-0.3,0.8,0.2,0.7c0.7-0.2,1.8-0.3,2.4,0.2
				C23.6,14.4,24.1,13.8,23.7,13.5L23.7,13.5z"/>
		</g>
	</g>
	<g>
		<path class="st5" d="M13.9,15.7c0.4,1.6,3,1.7,4.3,1.7c1.3,0,4.1-0.1,4.6-1.7c0.1-0.5-0.6-0.7-0.7-0.2c-0.3,1.1-2.8,1.1-3.6,1.2
			c-0.9,0-3.5,0.1-3.8-1.2C14.5,15.1,13.8,15.3,13.9,15.7L13.9,15.7z"/>
	</g>
</g>
</svg>
