<?xml version="1.0" encoding="utf-8"?>
<!-- Generator: Adobe Illustrator 22.1.0, SVG Export Plug-In . SVG Version: 6.00 Build 0)  -->
<svg version="1.1" id="Layer_1" xmlns="http://www.w3.org/2000/svg" xmlns:xlink="http://www.w3.org/1999/xlink" x="0px" y="0px"
	 viewBox="0 0 48 48" style="enable-background:new 0 0 48 48;" xml:space="preserve">
<style type="text/css">
	.st0{opacity:0.19;enable-background:new    ;}
	.st1{fill:#E8748A;}
	.st2{fill:#AF5151;}
	.st3{fill:#913D3D;}
	.st4{fill:#FFFFFF;}
	.st5{fill:#0098D0;}
</style>
<ellipse class="st0" cx="23.5" cy="44.7" rx="10.4" ry="3.3"/>
<path class="st1" d="M23.5,0c-9.4,0-17,7.5-17,16.8s17,28,17,28s17-18.7,17-28S32.9,0,23.5,0z"/>
<circle class="st2" cx="23.5" cy="15.5" r="4.2"/>
<path class="st3" d="M23.5,12.2c2.2,0,3.9,1.6,4.2,3.8c0-0.2,0.1-0.3,0.1-0.5c0-2.3-1.9-4.2-4.2-4.2s-4.2,1.9-4.2,4.2
	c0,0.2,0,0.3,0.1,0.5C19.6,13.9,21.3,12.2,23.5,12.2z"/>
<g>
	<circle class="st1" cx="23.5" cy="16.5" r="16.5"/>
	<g>
		<path class="st4" d="M31.3,13.8c1.4-2.9-3.1-4.9-4.5-3.9C23,5.6,17.7,8.8,18,11.9c-4.5-3-9.7,4.6-5.6,7.8c-2.3,2.1,1,5.7,4,3.9
			c1.3,2.6,4.1,1.6,5.9,0.6c1.8,1.5,4,1,5.3-0.7c1.3,1.6,5.4,1.5,5.9-2.3C38.6,18.9,35.8,12.5,31.3,13.8z"/>
		<g>
			<path class="st5" d="M31.7,14c0.7-1.6,0.1-2.9-1.2-4c-1-0.8-2.8-1.3-4-0.6c0.2,0,0.4,0.1,0.6,0.1c-1.7-1.8-4-2.7-6.4-1.9
				c-1.8,0.6-3.3,2.3-3.2,4.3c0.2-0.1,0.5-0.3,0.7-0.4c-4.9-3.2-10.7,4.9-6.2,8.6c0-0.2,0-0.5,0-0.7c-1.2,1.2-1.1,2.8-0.1,4
				c1.2,1.4,3.1,1.5,4.6,0.6c-0.2-0.1-0.4-0.1-0.7-0.2c1.4,2.6,4.3,2,6.6,0.8c-0.2,0-0.3,0-0.5,0c1.9,1.5,4.3,1.1,5.8-0.8
				c-0.2,0-0.5,0-0.7,0c1.1,1.3,3,1.3,4.5,0.7c0.9-0.4,1.5-1.2,1.9-2.1c0.3-0.6,0.2-0.9,0.8-1.3c0.5-0.3,1-0.7,1.4-1.2
				c1.2-1.4,1.2-3.4,0.3-5c-1-1.6-3-2.2-4.8-1.8c-0.6,0.1-0.4,1.1,0.3,0.9c3.2-0.8,5.6,2.9,3.3,5.5c-0.3,0.3-0.7,0.6-1.1,0.8
				c-0.2,0.1-0.7,0.2-0.7,0.5c-0.2,0.9-0.5,1.8-1.2,2.3c-1.1,0.8-2.9,0.8-3.8-0.2c-0.2-0.2-0.5-0.2-0.7,0c-1.3,1.6-3,1.9-4.7,0.7
				c-0.1-0.1-0.3-0.1-0.5,0c-1.7,0.9-4.1,1.7-5.2-0.4c-0.1-0.2-0.4-0.3-0.7-0.2c-1.1,0.6-2.3,0.5-3.3-0.3c-0.9-0.8-0.9-2-0.1-2.8
				c0.2-0.2,0.2-0.5,0-0.7c-3.6-3,1-9.6,5-7c0.3,0.2,0.7-0.1,0.7-0.4c-0.1-1.6,1.1-2.8,2.5-3.3c2-0.8,4.1,0.1,5.5,1.6
				c0.1,0.2,0.4,0.2,0.6,0.1c0.8-0.5,1.9,0,2.6,0.4c1.1,0.6,1.7,1.7,1.2,2.9C30.6,14.1,31.5,14.6,31.7,14z"/>
		</g>
	</g>
	<g>
		<path class="st5" d="M25.3,13.1c0.7-0.6,0.7-1.3,0.1-1.9c-0.6-0.7-1.8-0.6-2.6-0.1c-1.5,1-0.3,3.2,0.9,3.7
			c1.6,0.7,3.5-0.1,4.1-1.7c0.7-2-0.8-4-2.4-5c-0.5-0.3-1,0.5-0.5,0.8c1.5,0.9,3,3.2,1.4,4.7c-0.8,0.7-2.1,0.5-2.8-0.2
			c-0.3-0.3-0.5-0.8-0.4-1.3c0.2-0.9,2.2-0.4,1.4,0.3C24.2,12.8,24.9,13.5,25.3,13.1L25.3,13.1z"/>
	</g>
	<g>
		<g>
			<path class="st5" d="M20.1,16.6c-1.1-0.8-3.2-0.7-4,0.4c-0.4,0.5,0.4,1.1,0.8,0.6c0.5-0.7,2-0.7,2.6-0.2
				C20,17.7,20.6,17,20.1,16.6L20.1,16.6z"/>
		</g>
	</g>
	<g>
		<g>
			<path class="st5" d="M29.8,16.8c-1.1-0.9-2.7-0.8-4-0.5c-0.6,0.1-0.3,1.1,0.3,0.9c0.9-0.2,2.2-0.4,3,0.3
				C29.7,17.9,30.3,17.2,29.8,16.8L29.8,16.8z"/>
		</g>
	</g>
	<g>
		<path class="st5" d="M17.4,19.6c0.5,2.1,3.8,2.2,5.4,2.2c1.7,0,5.2-0.2,5.8-2.2c0.2-0.6-0.7-0.9-0.9-0.3c-0.4,1.4-3.5,1.4-4.6,1.5
			c-1.1,0-4.4,0.1-4.7-1.5C18.2,18.8,17.2,19,17.4,19.6L17.4,19.6z"/>
	</g>
</g>
</svg>
